<svg width="512" height="512" viewBox="0 0 512 512" fill="none" xmlns="http://www.w3.org/2000/svg">
<g clip-path="url(#clip0_993_298)">
<rect width="512" height="512" rx="52" fill="black"/>
<path d="M169.211 394.4C118.811 394.4 83.6109 362.4 83.6109 318C83.6109 305.6 86.4109 292.4 91.2109 278.8C94.8109 268.8 102.411 264.4 109.211 264.4C117.211 264.4 124.411 270 124.411 280C124.411 292.4 117.211 301.2 117.211 317.2C117.211 344.4 138.811 364.4 170.411 364.4C203.211 364.4 225.611 342.4 225.611 314.8C225.611 286 201.611 271.6 176.011 252.8C146.011 231.2 113.611 207.2 113.611 164.8C113.611 133.2 140.811 106 179.611 106C213.611 106 244.011 126.4 244.011 161.6C244.011 174.4 239.611 188.8 226.811 188.8C219.211 188.8 211.611 182.8 211.611 174.8C211.611 171.2 212.411 167.6 212.411 162.8C212.411 148.8 198.011 136 179.211 136C160.811 136 147.211 148.4 147.211 164.4C147.211 190.8 170.811 207.6 196.411 226C226.411 248 259.211 269.2 259.211 312.4C259.211 358.4 221.211 394.4 169.211 394.4ZM289.077 336.8C315.077 320 355.877 244.8 355.877 192.4C355.877 163.6 342.677 150.4 325.077 150.4C307.077 150.4 292.677 164.8 292.677 196.8C292.677 201.2 291.877 205.2 289.477 208.8C286.677 212.8 282.677 215.6 277.477 215.6C269.477 215.6 261.477 209.2 261.477 196.8C261.477 147.2 288.677 120.8 325.077 120.8C362.677 120.8 388.277 143.2 388.277 192C388.277 241.2 359.877 304.8 320.277 350C334.677 357.2 348.277 361.2 359.477 361.2C377.477 361.2 389.077 351.2 394.677 327.6C397.077 317.6 403.477 313.6 409.877 313.6C417.477 313.6 424.277 319.2 424.277 328.8C424.277 356.8 401.877 390.8 367.077 390.8C336.277 390.8 311.477 376.4 301.877 376.4C289.877 376.4 282.677 388 270.677 388C260.677 388 253.477 379.6 253.477 370C253.477 355.2 267.077 351.2 289.077 336.8Z" fill="white"/>
</g>
<defs>
<clipPath id="clip0_993_298">
<rect width="512" height="512" rx="52" fill="white"/>
</clipPath>
</defs>
</svg>
